<?xml version="1.0" encoding="UTF-8"?>
<svg id="b" data-name="Capa 2" xmlns="http://www.w3.org/2000/svg" viewBox="0 0 30.74 30.93">
  <defs>
    <style>
      .d {
        fill: #00a3ff;
      }
    </style>
  </defs>
  <g id="c" data-name="Capa 1">
    <g>
      <path class="d" d="M0,30.93l2.13-7.89C-3.83,12.34,4.1-.63,16.39.02c7.51.4,13.92,6.74,14.32,14.26.66,12.19-11.92,20.15-22.69,14.52L0,30.93ZM3.67,27.26l4.79-1.22c6.92,4.4,16.26,1.29,18.97-6.47C30.78,9.96,22.18.55,12.32,2.98,3.73,5.1-.07,15.3,4.93,22.59l-1.26,4.67Z"/>
      <path class="d" d="M9.7,8.28c.24-.04,1.16-.05,1.37.01.11.03.25.17.32.26.27.34,1.23,2.71,1.4,3.23.14.41.08.51-.13.88-.23.4-.9,1.01-1.03,1.35-.15.38.32.97.54,1.29,1.07,1.57,2.65,2.89,4.41,3.64.34.14.73.4,1.06.11l1.41-1.75c.29-.24.71-.03,1.01.09,1.01.4,1.95.99,2.94,1.44.24.19.19.69.16.98-.26,2.59-3.18,3.22-5.32,2.63-3.29-.9-5.9-2.98-7.96-5.62-1.38-1.78-2.75-3.87-2.07-6.24.21-.72,1.09-2.17,1.88-2.3Z"/>
    </g>
  </g>
</svg>