<svg xmlns="http://www.w3.org/2000/svg" viewBox="0 0 39.44 28.37"><defs><style>.cls-1{fill:#00a3ff;}</style></defs><g id="Capa_2" data-name="Capa 2"><g id="Capa_1-2" data-name="Capa 1"><path class="cls-1" d="M38.91,1a2.51,2.51,0,0,0-2-1H2.49a2.46,2.46,0,0,0-2,1A2.4,2.4,0,0,0,0,2.49V25.87a2.45,2.45,0,0,0,.52,1.52,2.46,2.46,0,0,0,2,1H37a2.5,2.5,0,0,0,2.49-2.5V2.49A2.47,2.47,0,0,0,38.91,1Zm-5,2L22.72,14.18,20.5,16.4a1.1,1.1,0,0,1-1.56,0l-2.22-2.22L14.6,12.06,5.54,3ZM12.48,14.18,3,23.67V4.7ZM5.54,25.37,14.6,16.3l2.22,2.22a4.1,4.1,0,0,0,5.8,0l2.22-2.22,9.06,9.07ZM27,14.18,36.44,4.7v19Z"/></g></g></svg>