<svg xmlns="http://www.w3.org/2000/svg" viewBox="0 0 102.73 81.58"><defs><style>.cls-1{fill:#00a3ff;}</style></defs><g id="Capa_2" data-name="Capa 2"><g id="Capa_1-2" data-name="Capa 1"><path class="cls-1" d="M82.94,58.25c-.22-.43-.43-.88-.62-1.36-1.73-4.36-.57-10.24-.16-11.82,1.11-4.06,2.31-10.73,1.47-13.14-.75-2.21-5.18-8.58-8.4-12.78-2.76-3.61-5-6.34-5-6.34s-1.07-1.54-2.22-.72c-.93.66-1.06,2.8-.09,4.31.42.66,5.52,8.53,6.65,10.23,1,1.46,1,4,1,6-.12,3.22-.64,6.11-.93,6.3-.79.53-.71-.58-.73-1.15-.06-2.31,1.93-10-1.1-11-2.44-.81-3.43,2.14-3.71,3.81-.33,1.87,0,4.74-.29,6.6-1,6.51-6.12,10.26-2.71,17.58,1.19,2.56,2.93,4.14,4.15,6.26a24.77,24.77,0,0,1,2.39,5.47L70.77,68C64.67,72.49,58.08,77,51.36,81.58c-3.88-2.64-7.72-5.26-11.44-7.88l0-.13a22.87,22.87,0,0,1,.7-7.17c.6-2.36,1.85-4.36,2.3-7.14,1.29-8-4.69-10.19-7.38-16.19-.77-1.72-1.25-4.56-2.07-6.27-.73-1.54-2.47-4.1-4.61-2.66C26.2,35.92,30.2,42.77,30.76,45c.14.55.53,1.57-.39,1.31-.25-.08-1.61-2.74-2.59-5.82-.62-1.93-1.26-4.37-.72-6,.62-1.94,3.39-10.91,3.63-11.66.51-1.71,0-3.71-1.26-4.12s-1.92,1.15-1.92,1.15-1.42,3.37-3.11,7.6c-2,4.92-4.48,12.24-4.62,14.58-.15,2.54,2.82,8.65,5,12.25.78,1.31,3.23,6.13,3.11,10.58l-.09-.06C11.38,52.08-.51,39.3,0,25.88.93,2.86,23-5.4,38.8,3.52c4.64,2.61,8.87,6.79,12.56,11.61-6.94,9.06-9.15,16.9-9.15,21.14,0,6.17,3.37,11.33,9.15,11.33,6,0,9.16-5.12,9.16-11.33,0-4.24-2.22-12.08-9.15-21.14,3.68-4.82,7.92-9,12.56-11.61,15.85-8.92,37.87-.66,38.78,22.36C103.15,37,95.05,47.69,82.94,58.25Z"/></g></g></svg>