<?xml version="1.0" encoding="UTF-8"?>
<svg id="b" data-name="Capa 2" xmlns="http://www.w3.org/2000/svg" viewBox="0 0 91.13 72.36">
  <defs>
    <style>
      .d {
        fill: #00a3ff;
      }
    </style>
  </defs>
  <g id="c" data-name="Capa 1">
    <path class="d" d="M91.11,22.96c-.81-20.43-20.34-27.75-34.4-19.84-4.12,2.31-7.87,6.03-11.14,10.3,6.16,8.04,7.88,13.92,8.12,17.67.33,5.3-1.33,11.13-8.12,11.14-6.79,0-8.45-5.83-8.12-11.14.24-3.76,1.96-9.63,8.11-17.67-3.27-4.27-7.03-7.98-11.14-10.3C20.35-4.79.82,2.53.02,22.96c-.47,11.9,10.08,23.24,24.63,34.51.04-.58-.08-1.16-.39-1.73-.36-.67-.65-1.39-1.03-2.06-1.09-1.89-2.24-3.74-3.3-5.65-.99-1.79-1.86-3.65-2.15-5.71-.25-1.75-.31-3.5-.07-5.26.19-1.41.31-2.84.62-4.23.78-3.5,1.97-6.87,3.48-10.12.39-.84.92-1.64,1.48-2.39.43-.58,1.09-.77,1.81-.52.68.23.99.78.99,1.43,0,1,0,2.03-.22,3-.36,1.62-.9,3.2-1.35,4.81-.34,1.22-.7,2.43-.95,3.66-.26,1.29.16,2.53.52,3.88.07-.24.11-.38.15-.52.23-.79.45-1.57.69-2.36.46-1.51,2.12-1.48,2.93-.69.34.33.64.74.84,1.17.86,1.9,1.67,3.82,2.5,5.74,1.11,2.55,2.16,5.14,3.57,7.56.86,1.48,1.68,2.98,2.44,4.51.93,1.86,1.15,3.84.71,5.89-.34,1.54-1.06,2.9-1.94,4.18-.58.85-1.08,1.74-1.48,2.68,3.59,2.54,7.3,5.08,11.06,7.63,5.96-4.04,11.8-8.06,17.22-12.08-.69-1.16-1.51-2.22-2.48-3.17-1.11-1.1-2.07-2.29-2.69-3.74-.83-1.93-.98-3.91-.42-5.91.46-1.65.98-3.28,1.54-4.89.93-2.64,1.46-5.38,2.07-8.09.46-2.04.89-4.08,1.37-6.11.11-.46.33-.92.6-1.31.65-.93,2.27-1.27,3,.12.38.72.75,1.46,1.12,2.18.07.13.13.26.25.48.1-1.4.27-2.69-.22-3.91-.48-1.17-1.06-2.29-1.62-3.42-.74-1.49-1.57-2.94-2.23-4.46-.4-.91-.59-1.92-.78-2.91-.12-.63.08-1.24.71-1.59.66-.37,1.34-.32,1.88.17.69.63,1.36,1.31,1.91,2.07,2.1,2.91,3.9,5.99,5.33,9.28.57,1.3.95,2.68,1.41,4.03.57,1.68.84,3.41.93,5.18.1,2.08-.39,4.07-1.03,6.02-.67,2.07-1.46,4.11-2.17,6.18-.25.72-.39,1.48-.62,2.22-.32,1.03-.13,1.96.42,2.85.31.5.62,1,.94,1.5,11.62-9.82,19.54-19.74,19.13-30.08Z"/>
  </g>
</svg>