<?xml version="1.0" encoding="UTF-8"?>
<svg id="b" data-name="Capa 2" xmlns="http://www.w3.org/2000/svg" viewBox="0 0 389.26 72.36">
  <defs>
    <style>
      .d {
        fill: #00a0e9;
      }

      .e {
        fill: #353535;
      }
    </style>
  </defs>
  <g id="c" data-name="Capa 1">
    <g>
      <path class="d" d="M91.11,22.96c-.81-20.43-20.34-27.75-34.4-19.84-4.12,2.31-7.87,6.03-11.14,10.3,6.16,8.04,7.88,13.92,8.12,17.67.33,5.3-1.33,11.13-8.12,11.14-6.79,0-8.45-5.83-8.12-11.14.24-3.76,1.96-9.63,8.11-17.67-3.27-4.27-7.03-7.98-11.14-10.3C20.35-4.79.82,2.53.02,22.96c-.47,11.9,10.08,23.24,24.63,34.51.04-.58-.08-1.16-.39-1.73-.36-.67-.65-1.39-1.03-2.06-1.09-1.89-2.24-3.74-3.3-5.65-.99-1.79-1.86-3.65-2.15-5.71-.25-1.75-.31-3.5-.07-5.26.19-1.41.31-2.84.62-4.23.78-3.5,1.97-6.87,3.48-10.12.39-.84.92-1.64,1.48-2.39.43-.58,1.09-.77,1.81-.52.68.23.99.78.99,1.43,0,1,0,2.03-.22,3-.36,1.62-.9,3.2-1.35,4.81-.34,1.22-.7,2.43-.95,3.66-.26,1.29.16,2.53.52,3.88.07-.24.11-.38.15-.52.23-.79.45-1.57.69-2.36.46-1.51,2.12-1.48,2.93-.69.34.33.64.74.84,1.17.86,1.9,1.67,3.82,2.5,5.74,1.11,2.55,2.16,5.14,3.57,7.56.86,1.48,1.68,2.98,2.44,4.51.93,1.86,1.15,3.84.71,5.89-.34,1.54-1.06,2.9-1.94,4.18-.58.85-1.08,1.74-1.48,2.68,3.59,2.54,7.3,5.08,11.06,7.63,5.96-4.04,11.8-8.06,17.22-12.08-.69-1.16-1.51-2.22-2.48-3.17-1.11-1.1-2.07-2.29-2.69-3.74-.83-1.93-.98-3.91-.42-5.91.46-1.65.98-3.28,1.54-4.89.93-2.64,1.46-5.38,2.07-8.09.46-2.04.89-4.08,1.37-6.11.11-.46.33-.92.6-1.31.65-.93,2.27-1.27,3,.12.38.72.75,1.46,1.12,2.18.07.13.13.26.25.48.1-1.4.27-2.69-.22-3.91-.48-1.17-1.06-2.29-1.62-3.42-.74-1.49-1.57-2.94-2.23-4.46-.4-.91-.59-1.92-.78-2.91-.12-.63.08-1.24.71-1.59.66-.37,1.34-.32,1.88.17.69.63,1.36,1.31,1.91,2.07,2.1,2.91,3.9,5.99,5.33,9.28.57,1.3.95,2.68,1.41,4.03.57,1.68.84,3.41.93,5.18.1,2.08-.39,4.07-1.03,6.02-.67,2.07-1.46,4.11-2.17,6.18-.25.72-.39,1.48-.62,2.22-.32,1.03-.13,1.96.42,2.85.31.5.62,1,.94,1.5,11.62-9.82,19.54-19.74,19.13-30.08Z"/>
      <g>
        <path class="e" d="M125.05,38.59c0,1.71-.46,3.02-1.38,3.95-.92.93-2.23,1.39-3.94,1.39s-2.99-.46-3.91-1.38c-.92-.92-1.38-2.24-1.38-3.97v-14.96h-4.2v15.23c0,1.86.39,3.48,1.17,4.86.78,1.38,1.88,2.44,3.3,3.18,1.42.74,3.1,1.12,5.02,1.12s3.63-.38,5.05-1.13c1.42-.75,2.52-1.82,3.3-3.18.78-1.37,1.17-2.98,1.17-4.84v-15.23h-4.2v14.96Z"/>
        <path class="e" d="M143.03,30.91c-1.09,0-2.11.23-3.04.69-.93.46-1.65,1.09-2.15,1.9l-.33-2.1h-3.71v16.21h4v-8.73c0-1.31.35-2.36,1.05-3.15.7-.79,1.67-1.18,2.92-1.18,1.05,0,1.88.33,2.49,1,.61.67.92,1.68.92,3.04v9.02h4v-9.98c0-2.08-.52-3.72-1.56-4.92-1.04-1.2-2.58-1.8-4.61-1.8Z"/>
        <path class="e" d="M163.9,31.68c-1.05-.51-2.31-.77-3.77-.77s-2.72.24-3.82.72c-1.1.48-1.96,1.15-2.56,2.02-.6.86-.9,1.89-.9,3.07h3.41c0-.85.32-1.51.95-1.99.63-.47,1.54-.71,2.72-.71.68,0,1.27.1,1.77.31.5.21.89.54,1.17.98.27.45.41,1.05.41,1.79v.36l-4.86.39c-1.93.15-3.41.67-4.45,1.56-1.04.89-1.56,2.07-1.56,3.56s.5,2.73,1.49,3.66c1,.93,2.35,1.4,4.05,1.4,1.27,0,2.4-.26,3.4-.79,1-.53,1.67-1.2,2.02-2.03l.3,2.4h3.51v-9.85c0-1.51-.28-2.77-.85-3.79-.57-1.02-1.38-1.78-2.43-2.3ZM163.31,41.05c0,1.25-.37,2.22-1.1,2.92-.73.7-1.72,1.05-2.97,1.05-.88,0-1.55-.19-2.04-.56s-.72-.92-.72-1.64c0-.66.26-1.19.79-1.59.52-.4,1.41-.66,2.66-.77l3.38-.26v.85Z"/>
        <path class="e" d="M190.55,37.83h7.25v.1c0,.94-.16,1.79-.48,2.56-.32.77-.76,1.42-1.33,1.95-.57.54-1.26.94-2.08,1.21-.82.27-1.77.41-2.84.41-1.47,0-2.76-.32-3.89-.95-1.13-.63-2.01-1.57-2.64-2.81-.63-1.24-.95-2.74-.95-4.51s.29-3.27.89-4.55,1.44-2.28,2.56-3c1.12-.72,2.46-1.08,4.04-1.08,1.44,0,2.72.33,3.84,1,1.12.67,1.86,1.71,2.23,3.13h4.43c-.22-1.64-.8-3.06-1.76-4.27-.95-1.2-2.17-2.14-3.66-2.81-1.49-.67-3.15-1-4.99-1-2.38,0-4.48.54-6.28,1.61-1.8,1.07-3.21,2.54-4.2,4.41s-1.49,4.02-1.49,6.45.49,4.63,1.46,6.47c.97,1.84,2.32,3.27,4.04,4.28,1.72,1.02,3.69,1.53,5.92,1.53,1.2,0,2.32-.16,3.35-.48s1.92-.76,2.67-1.33c.52-.39.94-.83,1.27-1.3l.26,2.74h3.54v-13.49h-11.16v3.71Z"/>
        <path class="e" d="M217.81,32.03c-1.3-.72-2.79-1.08-4.48-1.08s-3.15.36-4.46,1.08c-1.31.72-2.34,1.72-3.08,3-.74,1.28-1.12,2.76-1.12,4.45s.37,3.17,1.12,4.45,1.77,2.28,3.08,3c1.31.72,2.8,1.08,4.46,1.08s3.18-.36,4.48-1.08c1.3-.72,2.32-1.72,3.07-3s1.12-2.76,1.12-4.45-.37-3.17-1.12-4.45c-.74-1.28-1.77-2.28-3.07-3ZM217.4,42.07c-.39.74-.94,1.32-1.64,1.74-.7.42-1.51.62-2.43.62s-1.72-.21-2.41-.62c-.69-.42-1.24-1-1.64-1.74-.4-.74-.61-1.61-.61-2.59s.2-1.88.61-2.61c.4-.73.95-1.31,1.64-1.72.69-.42,1.49-.62,2.41-.62s1.73.21,2.43.62c.7.42,1.25.99,1.64,1.72.39.73.59,1.6.59,2.61s-.2,1.85-.59,2.59Z"/>
        <polygon class="e" points="230.52 26.35 226.52 26.35 226.52 31.4 223.4 31.4 223.4 34.75 226.52 34.75 226.52 47.61 230.52 47.61 230.52 34.75 233.64 34.75 233.64 31.4 230.52 31.4 230.52 26.35"/>
        <path class="e" d="M246.83,31.68c-1.05-.51-2.31-.77-3.77-.77s-2.72.24-3.82.72c-1.1.48-1.96,1.15-2.56,2.02-.6.86-.9,1.89-.9,3.07h3.41c0-.85.32-1.51.95-1.99.63-.47,1.54-.71,2.72-.71.68,0,1.27.1,1.77.31.5.21.89.54,1.17.98.27.45.41,1.05.41,1.79v.36l-4.86.39c-1.93.15-3.41.67-4.45,1.56-1.04.89-1.56,2.07-1.56,3.56s.5,2.73,1.49,3.66c1,.93,2.35,1.4,4.05,1.4,1.27,0,2.4-.26,3.4-.79,1-.53,1.67-1.2,2.02-2.03l.3,2.4h3.51v-9.85c0-1.51-.28-2.77-.85-3.79-.57-1.02-1.38-1.78-2.43-2.3ZM246.24,41.05c0,1.25-.37,2.22-1.1,2.92-.73.7-1.72,1.05-2.97,1.05-.88,0-1.55-.19-2.04-.56s-.72-.92-.72-1.64c0-.66.26-1.19.79-1.59.52-.4,1.41-.66,2.66-.77l3.38-.26v.85Z"/>
        <path class="e" d="M273.38,33.47c-.5-.81-1.23-1.44-2.17-1.89-.94-.45-1.98-.67-3.12-.67-1.62,0-3.02.37-4.2,1.12-1.18.74-2.08,1.77-2.71,3.07-.62,1.3-.94,2.79-.94,4.48s.31,3.16.94,4.43c.62,1.27,1.5,2.26,2.63,2.97,1.13.71,2.48,1.07,4.05,1.07,1.23,0,2.34-.26,3.33-.79,1-.53,1.73-1.25,2.22-2.17l.26,2.53h3.68v-24.42h-3.97v10.27ZM272.78,42.02c-.38.75-.91,1.33-1.59,1.74s-1.49.61-2.43.61-1.72-.21-2.4-.62c-.68-.42-1.2-1-1.56-1.74-.36-.74-.54-1.6-.54-2.56s.18-1.82.54-2.56c.36-.74.88-1.33,1.56-1.76s1.48-.64,2.4-.64,1.75.21,2.43.64,1.21,1.01,1.59,1.74c.38.73.57,1.59.57,2.58s-.19,1.82-.57,2.58Z"/>
        <path class="e" d="M291.55,44.14c-.71.42-1.61.62-2.71.62-1.49,0-2.61-.45-3.36-1.35-.6-.71-.95-1.71-1.07-2.96l12.18-.03v-1.21c0-1.71-.32-3.17-.97-4.4-.65-1.23-1.56-2.18-2.74-2.87-1.18-.69-2.59-1.03-4.23-1.03s-2.98.37-4.2,1.1c-1.23.73-2.18,1.75-2.85,3.04-.68,1.29-1.02,2.78-1.02,4.46s.35,3.13,1.05,4.41c.7,1.28,1.67,2.29,2.9,3.02,1.24.73,2.65,1.1,4.25,1.1,2.12,0,3.88-.5,5.27-1.51,1.39-1.01,2.26-2.4,2.61-4.17h-3.71c-.22.77-.68,1.36-1.4,1.77ZM286.3,34.78c.65-.39,1.44-.59,2.38-.59,1.2,0,2.16.34,2.87,1.02.71.68,1.07,1.58,1.07,2.69h-8.15c.08-.49.21-.94.37-1.35.33-.79.81-1.38,1.46-1.77Z"/>
        <path class="e" d="M318.77,34.16l-3.77-.85c-1.01-.24-1.75-.61-2.22-1.1-.47-.49-.71-1.17-.71-2.02,0-1.01.39-1.8,1.17-2.38.78-.58,1.81-.87,3.1-.87,1.18,0,2.12.29,2.82.87.7.58,1.07,1.38,1.12,2.41h4.2c-.04-1.44-.4-2.69-1.07-3.74-.67-1.05-1.6-1.86-2.79-2.43-1.19-.57-2.6-.85-4.22-.85s-3.17.3-4.45.9c-1.28.6-2.28,1.44-3,2.51-.72,1.07-1.08,2.31-1.08,3.71,0,1.86.53,3.36,1.58,4.51,1.05,1.15,2.59,1.94,4.63,2.38l3.81.85c.98.2,1.7.54,2.13,1.03s.66,1.15.66,1.99c0,.96-.41,1.73-1.23,2.31-.82.58-1.93.87-3.33.87s-2.39-.29-3.17-.87c-.78-.58-1.18-1.37-1.2-2.38h-4.2c.04,1.42.42,2.66,1.13,3.71.71,1.05,1.7,1.87,2.97,2.45,1.27.58,2.75.87,4.43.87,1.77,0,3.32-.3,4.64-.9,1.32-.6,2.35-1.46,3.07-2.58.72-1.12,1.08-2.41,1.08-3.87,0-1.79-.5-3.22-1.51-4.28-1.01-1.06-2.54-1.81-4.59-2.25Z"/>
        <path class="e" d="M338.85,31.68c-1.05-.51-2.31-.77-3.77-.77s-2.72.24-3.82.72c-1.1.48-1.96,1.15-2.56,2.02-.6.86-.9,1.89-.9,3.07h3.41c0-.85.32-1.51.95-1.99.63-.47,1.54-.71,2.72-.71.68,0,1.27.1,1.77.31.5.21.89.54,1.17.98.27.45.41,1.05.41,1.79v.36l-4.86.39c-1.93.15-3.41.67-4.45,1.56-1.04.89-1.56,2.07-1.56,3.56s.5,2.73,1.49,3.66c1,.93,2.35,1.4,4.05,1.4,1.27,0,2.4-.26,3.4-.79,1-.53,1.67-1.2,2.02-2.03l.3,2.4h3.51v-9.85c0-1.51-.28-2.77-.85-3.79-.57-1.02-1.38-1.78-2.43-2.3ZM338.26,41.05c0,1.25-.37,2.22-1.1,2.92-.73.7-1.72,1.05-2.97,1.05-.88,0-1.55-.19-2.04-.56s-.72-.92-.72-1.64c0-.66.26-1.19.79-1.59.52-.4,1.41-.66,2.66-.77l3.38-.26v.85Z"/>
        <rect class="e" x="346.14" y="23.2" width="3.97" height="24.42"/>
        <path class="e" d="M365.3,39.9c0,1.53-.31,2.67-.92,3.43-.61.75-1.55,1.13-2.82,1.13-1.12,0-1.97-.34-2.56-1.02-.59-.68-.89-1.78-.89-3.31v-8.73h-4v10.14c0,1.97.52,3.54,1.58,4.73,1.05,1.18,2.5,1.77,4.36,1.77,1.09,0,2.12-.24,3.08-.72.96-.48,1.68-1.1,2.17-1.87l.3,2.17h3.71v-16.21h-4v8.5Z"/>
        <path class="e" d="M385.29,23.2v10.27c-.5-.81-1.23-1.44-2.17-1.89-.94-.45-1.98-.67-3.12-.67-1.62,0-3.02.37-4.2,1.12-1.18.74-2.08,1.77-2.71,3.07-.62,1.3-.94,2.79-.94,4.48s.31,3.16.94,4.43c.62,1.27,1.5,2.26,2.63,2.97,1.13.71,2.48,1.07,4.05,1.07,1.23,0,2.34-.26,3.33-.79,1-.53,1.73-1.25,2.22-2.17l.26,2.53h3.68v-24.42h-3.97ZM384.68,42.02c-.38.75-.91,1.33-1.59,1.74s-1.49.61-2.43.61-1.72-.21-2.4-.62c-.68-.42-1.2-1-1.56-1.74-.36-.74-.54-1.6-.54-2.56s.18-1.82.54-2.56c.36-.74.88-1.33,1.56-1.76s1.48-.64,2.4-.64,1.75.21,2.43.64,1.21,1.01,1.59,1.74c.38.73.57,1.59.57,2.58s-.19,1.82-.57,2.58Z"/>
      </g>
    </g>
  </g>
</svg>