<?xml version="1.0" encoding="UTF-8"?>
<svg id="b" data-name="Capa 2" xmlns="http://www.w3.org/2000/svg" viewBox="0 0 102.73 81.58">
  <defs>
    <style>
      .d {
        fill: #00a0e9;
      }
    </style>
  </defs>
  <g id="c" data-name="Capa 1">
    <path class="d" d="M82.94,58.25c-.22-.43-.43-.88-.62-1.36-1.73-4.36-.56-10.24-.15-11.82,1.11-4.06,2.3-10.73,1.47-13.14-.76-2.22-5.18-8.58-8.4-12.78-2.77-3.61-4.99-6.34-4.99-6.34,0,0-1.07-1.55-2.23-.72-.93.66-1.05,2.8-.09,4.31.42.66,5.52,8.54,6.65,10.23.97,1.46,1.02,3.98.95,6.01-.12,3.23-.63,6.11-.92,6.31-.79.52-.71-.59-.73-1.16-.07-2.31,1.93-9.99-1.1-10.99-2.44-.8-3.43,2.14-3.72,3.81-.32,1.87-.01,4.74-.29,6.6-.96,6.51-6.12,10.26-2.71,17.58,1.19,2.55,2.93,4.14,4.15,6.25.86,1.51,1.89,3.57,2.39,5.47l-1.82,1.44c-6.1,4.53-12.69,9.06-19.41,13.62-3.88-2.63-7.72-5.25-11.44-7.87,0-.04-.01-.09-.02-.13-.24-2.2.19-5.12.7-7.17.6-2.36,1.84-4.36,2.3-7.15,1.29-7.98-4.69-10.19-7.38-16.19-.77-1.72-1.25-4.56-2.07-6.27-.73-1.54-2.47-4.1-4.61-2.66-2.65,1.78,1.36,8.63,1.92,10.87.13.55.53,1.57-.39,1.31-.26-.08-1.61-2.74-2.6-5.82-.62-1.93-1.26-4.37-.72-6.03.62-1.94,3.39-10.9,3.62-11.66.51-1.71.03-3.71-1.26-4.12-1.35-.43-1.92,1.15-1.92,1.15,0,0-1.42,3.37-3.11,7.6-1.96,4.91-4.48,12.24-4.62,14.58-.15,2.54,2.82,8.65,4.98,12.25.77,1.32,3.23,6.13,3.1,10.59l-.09-.07C11.38,52.08-.51,39.3.02,25.88.93,2.86,22.95-5.4,38.8,3.52c4.64,2.61,8.87,6.8,12.56,11.61-6.94,9.06-9.14,16.9-9.14,21.14,0,6.17,3.37,11.33,9.15,11.33s9.15-5.12,9.15-11.33c0-4.24-2.21-12.08-9.15-21.14,3.69-4.81,7.92-9,12.56-11.61,15.85-8.92,37.87-.66,38.78,22.37.44,11.12-7.66,21.8-19.78,32.36Z"/>
  </g>
</svg>