<?xml version="1.0" encoding="UTF-8"?>
<svg id="b" data-name="Capa 2" xmlns="http://www.w3.org/2000/svg" viewBox="0 0 313.13 97.48">
  <defs>
    <style>
      .d {
        fill: #00a0e9;
      }

      .e {
        fill: #353535;
      }
    </style>
  </defs>
  <g id="c" data-name="Capa 1">
    <g>
      <path class="d" d="M122.74,30.93c-1.09-27.52-27.4-37.39-46.35-26.73-5.54,3.12-10.6,8.12-15.01,13.87,8.29,10.83,10.61,18.75,10.93,23.81.45,7.14-1.8,15-10.94,15-9.14,0-11.39-7.86-10.94-15,.32-5.06,2.64-12.97,10.93-23.81-4.4-5.75-9.47-10.76-15.01-13.87C27.42-6.46,1.11,3.41.02,30.93c-.63,16.03,13.58,31.31,33.18,46.5.05-.78-.11-1.56-.52-2.33-.49-.91-.88-1.88-1.39-2.77-1.46-2.55-3.02-5.04-4.44-7.62-1.34-2.41-2.5-4.92-2.9-7.7-.34-2.36-.42-4.72-.09-7.09.26-1.9.42-3.83.83-5.69,1.05-4.71,2.65-9.26,4.68-13.64.53-1.14,1.24-2.21,1.99-3.22.58-.78,1.47-1.03,2.44-.71.92.31,1.34,1.06,1.34,1.93,0,1.35,0,2.74-.29,4.04-.49,2.18-1.21,4.32-1.81,6.47-.45,1.64-.95,3.27-1.27,4.93-.35,1.74.22,3.41.7,5.23.1-.33.15-.51.21-.7.31-1.06.61-2.12.92-3.18.62-2.03,2.85-1.99,3.94-.93.46.45.87,1,1.13,1.58,1.16,2.56,2.25,5.15,3.37,7.73,1.5,3.44,2.91,6.92,4.81,10.18,1.16,1.99,2.26,4.02,3.29,6.08,1.25,2.51,1.55,5.17.95,7.93-.45,2.08-1.42,3.91-2.61,5.64-.79,1.15-1.45,2.35-2,3.61,4.83,3.42,9.84,6.84,14.91,10.27,8.03-5.44,15.9-10.85,23.19-16.27-.93-1.57-2.04-2.99-3.34-4.27-1.49-1.48-2.79-3.09-3.63-5.04-1.11-2.59-1.33-5.26-.57-7.96.62-2.22,1.31-4.42,2.07-6.59,1.25-3.56,1.97-7.24,2.79-10.9.62-2.74,1.2-5.49,1.85-8.23.15-.62.44-1.24.81-1.76.87-1.25,3.06-1.71,4.05.16.51.98,1.01,1.96,1.51,2.94.09.17.18.35.33.65.13-1.88.37-3.63-.3-5.27-.64-1.57-1.43-3.08-2.19-4.6-1-2.01-2.12-3.96-3.01-6.01-.53-1.23-.8-2.59-1.06-3.91-.16-.86.11-1.67.95-2.15.89-.5,1.81-.43,2.53.23.93.85,1.83,1.77,2.57,2.78,2.83,3.92,5.26,8.08,7.19,12.5.76,1.75,1.28,3.61,1.9,5.43.77,2.26,1.13,4.6,1.25,6.98.14,2.8-.53,5.48-1.38,8.1-.91,2.79-1.96,5.54-2.92,8.32-.33.98-.53,2-.84,2.99-.43,1.38-.18,2.64.56,3.84.42.67.84,1.35,1.26,2.02,15.66-13.23,26.32-26.59,25.77-40.52Z"/>
      <g>
        <path class="e" d="M171.47,19.08h-4.92v17.54c0,2-.54,3.55-1.62,4.63-1.08,1.09-2.62,1.63-4.62,1.63s-3.5-.54-4.58-1.62-1.62-2.63-1.62-4.65v-17.54h-4.92v17.85c0,2.18.46,4.08,1.37,5.69.91,1.62,2.2,2.86,3.87,3.73,1.67.87,3.63,1.31,5.88,1.31s4.26-.44,5.92-1.33,2.96-2.13,3.87-3.73c.91-1.6,1.37-3.49,1.37-5.67v-17.85Z"/>
        <path class="e" d="M187.62,27.61c-1.28,0-2.47.27-3.56.81s-1.93,1.28-2.52,2.23l-.38-2.46h-4.35v19h4.69v-10.23c0-1.54.41-2.77,1.23-3.69.82-.92,1.96-1.38,3.42-1.38,1.23,0,2.21.39,2.92,1.17.72.78,1.08,1.97,1.08,3.56v10.58h4.69v-11.69c0-2.44-.61-4.36-1.83-5.77-1.22-1.41-3.02-2.12-5.4-2.12Z"/>
        <path class="e" d="M209.1,46.77c1.17-.62,1.96-1.41,2.37-2.38l.35,2.81h4.12v-11.54c0-1.77-.33-3.25-1-4.44-.67-1.19-1.62-2.09-2.85-2.69-1.23-.6-2.71-.9-4.42-.9s-3.19.28-4.48.85-2.29,1.35-3,2.37c-.71,1.01-1.06,2.21-1.06,3.6h4c0-1,.37-1.78,1.12-2.33.74-.55,1.81-.83,3.19-.83.79,0,1.49.12,2.08.37.59.24,1.04.63,1.37,1.15.32.53.48,1.23.48,2.1v.42l-5.69.46c-2.26.18-3.99.79-5.21,1.83-1.22,1.04-1.83,2.43-1.83,4.17s.58,3.2,1.75,4.29c1.17,1.09,2.75,1.63,4.75,1.63,1.49,0,2.81-.31,3.98-.92ZM203.39,41.58c0-.77.31-1.39.92-1.87.62-.47,1.65-.78,3.12-.9l3.96-.31v1c0,1.46-.43,2.6-1.29,3.42-.86.82-2.02,1.23-3.48,1.23-1.03,0-1.82-.22-2.38-.65-.56-.44-.85-1.08-.85-1.92Z"/>
        <path class="e" d="M243.32,35.73h8.5v.12c0,1.1-.19,2.1-.56,3-.37.9-.89,1.66-1.56,2.29-.67.63-1.48,1.1-2.44,1.42-.96.32-2.07.48-3.33.48-1.72,0-3.24-.37-4.56-1.12-1.32-.74-2.35-1.84-3.1-3.29-.74-1.45-1.12-3.21-1.12-5.29s.35-3.83,1.04-5.33,1.69-2.67,3-3.52c1.31-.85,2.88-1.27,4.73-1.27,1.69,0,3.19.39,4.5,1.17,1.31.78,2.18,2.01,2.62,3.67h5.19c-.26-1.92-.94-3.59-2.06-5-1.12-1.41-2.55-2.51-4.29-3.29-1.74-.78-3.69-1.17-5.85-1.17-2.79,0-5.25.63-7.37,1.88-2.12,1.26-3.76,2.98-4.92,5.17s-1.75,4.71-1.75,7.56.57,5.42,1.71,7.58c1.14,2.15,2.72,3.83,4.73,5.02,2.01,1.19,4.33,1.79,6.94,1.79,1.41,0,2.72-.19,3.92-.56,1.21-.37,2.25-.89,3.13-1.56.61-.46,1.1-.97,1.49-1.52l.3,3.21h4.15v-15.81h-13.08v4.35Z"/>
        <path class="e" d="M280.16,37.65c0-1.97-.44-3.71-1.31-5.21-.87-1.5-2.07-2.67-3.6-3.52-1.53-.85-3.28-1.27-5.25-1.27s-3.69.42-5.23,1.27c-1.54.85-2.74,2.02-3.62,3.52-.87,1.5-1.31,3.24-1.31,5.21s.44,3.71,1.31,5.21c.87,1.5,2.08,2.67,3.62,3.52,1.54.85,3.28,1.27,5.23,1.27s3.72-.42,5.25-1.27c1.52-.85,2.72-2.02,3.6-3.52.87-1.5,1.31-3.24,1.31-5.21ZM274.78,40.69c-.46.87-1.1,1.55-1.92,2.04-.82.49-1.77.73-2.85.73s-2.02-.24-2.83-.73c-.81-.49-1.45-1.17-1.92-2.04-.47-.87-.71-1.88-.71-3.04s.24-2.2.71-3.06c.47-.86,1.12-1.53,1.92-2.02.81-.49,1.75-.73,2.83-.73s2.03.24,2.85.73c.82.49,1.46,1.16,1.92,2.02.46.86.69,1.88.69,3.06s-.23,2.17-.69,3.04Z"/>
        <polygon class="e" points="285.47 47.19 290.16 47.19 290.16 32.11 293.82 32.11 293.82 28.19 290.16 28.19 290.16 22.27 285.47 22.27 285.47 28.19 281.82 28.19 281.82 32.11 285.47 32.11 285.47 47.19"/>
        <path class="e" d="M312.13,31.21c-.67-1.19-1.62-2.09-2.85-2.69-1.23-.6-2.71-.9-4.42-.9s-3.19.28-4.48.85c-1.3.56-2.3,1.35-3,2.37-.71,1.01-1.06,2.21-1.06,3.6h4c0-1,.37-1.78,1.12-2.33.74-.55,1.81-.83,3.19-.83.79,0,1.49.12,2.08.37.59.24,1.04.63,1.37,1.15.32.53.48,1.23.48,2.1v.42l-5.69.46c-2.26.18-3.99.79-5.21,1.83-1.22,1.04-1.83,2.43-1.83,4.17s.58,3.2,1.75,4.29c1.17,1.09,2.75,1.63,4.75,1.63,1.49,0,2.81-.31,3.98-.92s1.96-1.41,2.37-2.38l.35,2.81h4.12v-11.54c0-1.77-.33-3.25-1-4.44ZM308.59,39.5c0,1.46-.43,2.6-1.29,3.42-.86.82-2.02,1.23-3.48,1.23-1.03,0-1.82-.22-2.38-.65-.56-.44-.85-1.08-.85-1.92,0-.77.31-1.39.92-1.87.62-.47,1.65-.78,3.12-.9l3.96-.31v1Z"/>
        <path class="e" d="M162.97,69.47c-.59-.95-1.44-1.69-2.54-2.21-1.1-.53-2.32-.79-3.65-.79-1.9,0-3.54.44-4.92,1.31-1.38.87-2.44,2.07-3.17,3.6-.73,1.53-1.1,3.28-1.1,5.25s.37,3.71,1.1,5.19c.73,1.49,1.76,2.65,3.08,3.48s2.9,1.25,4.75,1.25c1.44,0,2.74-.31,3.9-.92,1.17-.62,2.03-1.46,2.6-2.54l.31,2.96h4.31v-28.62h-4.65v12.04ZM162.26,79.49c-.45.88-1.07,1.56-1.87,2.04-.8.48-1.74.71-2.85.71s-2.01-.24-2.81-.73c-.8-.49-1.4-1.17-1.83-2.04-.42-.87-.63-1.87-.63-3s.21-2.13.63-3c.42-.87,1.03-1.56,1.83-2.06.79-.5,1.73-.75,2.81-.75s2.05.25,2.85.75c.79.5,1.42,1.18,1.87,2.04.45.86.67,1.87.67,3.02s-.22,2.13-.67,3.02Z"/>
        <path class="e" d="M184.26,81.97c-.83.49-1.89.73-3.17.73-1.74,0-3.06-.53-3.94-1.58-.7-.83-1.11-2-1.26-3.47l14.28-.03v-1.42c0-2-.38-3.72-1.13-5.15-.76-1.44-1.83-2.56-3.21-3.37-1.38-.81-3.04-1.21-4.96-1.21s-3.49.43-4.92,1.29c-1.44.86-2.55,2.05-3.35,3.56-.8,1.51-1.19,3.26-1.19,5.23s.41,3.67,1.23,5.17c.82,1.5,1.96,2.68,3.4,3.54,1.45.86,3.11,1.29,4.98,1.29,2.49,0,4.54-.59,6.17-1.77,1.63-1.18,2.65-2.81,3.06-4.88h-4.35c-.26.9-.8,1.59-1.63,2.08ZM178.1,71.01c.76-.46,1.69-.69,2.79-.69,1.41,0,2.53.4,3.37,1.19.83.8,1.25,1.85,1.25,3.15h-9.55c.1-.58.24-1.11.44-1.58.38-.92.96-1.62,1.71-2.08Z"/>
        <path class="e" d="M216.16,70.28l-4.42-1c-1.18-.28-2.05-.71-2.6-1.29-.55-.58-.83-1.37-.83-2.37,0-1.18.46-2.11,1.37-2.79.91-.68,2.12-1.02,3.63-1.02,1.38,0,2.49.34,3.31,1.02.82.68,1.26,1.62,1.31,2.83h4.92c-.05-1.69-.47-3.15-1.25-4.38s-1.87-2.18-3.27-2.85c-1.4-.67-3.04-1-4.94-1s-3.71.35-5.21,1.06c-1.5.71-2.67,1.69-3.52,2.94-.85,1.26-1.27,2.71-1.27,4.35,0,2.18.62,3.94,1.85,5.29,1.23,1.35,3.04,2.28,5.42,2.79l4.46,1c1.15.23,1.99.63,2.5,1.21.51.58.77,1.35.77,2.33,0,1.13-.48,2.03-1.44,2.71-.96.68-2.26,1.02-3.9,1.02s-2.8-.34-3.71-1.02c-.91-.68-1.38-1.61-1.4-2.79h-4.92c.05,1.67.49,3.12,1.33,4.35.83,1.23,1.99,2.19,3.48,2.87,1.49.68,3.22,1.02,5.19,1.02,2.08,0,3.89-.35,5.44-1.06s2.75-1.71,3.6-3.02c.85-1.31,1.27-2.82,1.27-4.54,0-2.1-.59-3.78-1.77-5.02-1.18-1.24-2.97-2.12-5.38-2.63Z"/>
        <path class="e" d="M239.7,67.37c-1.23-.6-2.71-.9-4.42-.9s-3.19.28-4.48.85c-1.29.56-2.29,1.35-3,2.37-.71,1.01-1.06,2.21-1.06,3.6h4c0-1,.37-1.78,1.12-2.33.74-.55,1.81-.83,3.19-.83.79,0,1.49.12,2.08.37.59.24,1.04.63,1.37,1.15.32.53.48,1.22.48,2.1v.42l-5.69.46c-2.26.18-3.99.79-5.21,1.83-1.22,1.04-1.83,2.43-1.83,4.17s.58,3.2,1.75,4.29c1.17,1.09,2.75,1.63,4.75,1.63,1.49,0,2.81-.31,3.98-.92,1.17-.62,1.96-1.41,2.37-2.38l.35,2.81h4.12v-11.54c0-1.77-.33-3.25-1-4.44-.67-1.19-1.62-2.09-2.85-2.69ZM239.01,78.35c0,1.46-.43,2.6-1.29,3.42-.86.82-2.02,1.23-3.48,1.23-1.03,0-1.82-.22-2.38-.65-.56-.44-.85-1.08-.85-1.92,0-.77.31-1.39.92-1.87.62-.47,1.65-.78,3.12-.9l3.96-.31v1Z"/>
        <rect class="e" x="248.24" y="57.43" width="4.65" height="28.62"/>
        <path class="e" d="M270.7,77.01c0,1.79-.36,3.13-1.08,4.02-.72.88-1.82,1.33-3.31,1.33-1.31,0-2.31-.4-3-1.19-.69-.79-1.04-2.09-1.04-3.88v-10.23h-4.69v11.88c0,2.31.62,4.15,1.85,5.54,1.23,1.38,2.94,2.08,5.12,2.08,1.28,0,2.49-.28,3.62-.85,1.13-.56,1.97-1.29,2.54-2.19l.35,2.54h4.35v-19h-4.69v9.96Z"/>
        <path class="e" d="M294.13,69.47c-.59-.95-1.44-1.69-2.54-2.21-1.1-.53-2.32-.79-3.65-.79-1.9,0-3.54.44-4.92,1.31-1.38.87-2.44,2.07-3.17,3.6-.73,1.53-1.1,3.28-1.1,5.25s.37,3.71,1.1,5.19c.73,1.49,1.76,2.65,3.08,3.48,1.32.83,2.9,1.25,4.75,1.25,1.44,0,2.74-.31,3.9-.92,1.17-.62,2.03-1.46,2.6-2.54l.31,2.96h4.31v-28.62h-4.65v12.04ZM293.41,79.49c-.45.88-1.07,1.56-1.87,2.04-.79.48-1.74.71-2.85.71s-2.01-.24-2.81-.73c-.8-.49-1.4-1.17-1.83-2.04-.42-.87-.63-1.87-.63-3s.21-2.13.63-3c.42-.87,1.03-1.56,1.83-2.06.79-.5,1.73-.75,2.81-.75s2.05.25,2.85.75,1.42,1.18,1.87,2.04c.45.86.67,1.87.67,3.02s-.22,2.13-.67,3.02Z"/>
      </g>
    </g>
  </g>
</svg>