<?xml version="1.0" encoding="UTF-8"?>
<svg id="b" data-name="Capa 2" xmlns="http://www.w3.org/2000/svg" viewBox="0 0 510.18 87.99">
  <defs>
    <style>
      .d {
        fill: #00a0e9;
      }
    </style>
  </defs>
  <g id="c" data-name="Capa 1">
    <g>
      <path class="d" d="M89.46,62.83c-.24-.46-.46-.94-.67-1.47-1.87-4.7-.61-11.05-.17-12.75,1.2-4.38,2.48-11.58,1.59-14.17-.82-2.39-5.59-9.26-9.06-13.78-2.99-3.9-5.38-6.84-5.38-6.84,0,0-1.16-1.67-2.4-.78-1,.71-1.14,3.02-.09,4.65.46.71,5.96,9.21,7.17,11.04,1.04,1.57,1.1,4.29,1.02,6.48-.13,3.48-.68,6.6-1,6.8-.86.56-.77-.63-.79-1.25-.07-2.49,2.08-10.77-1.19-11.85-2.64-.87-3.7,2.31-4.01,4.11-.35,2.02-.01,5.11-.31,7.12-1.04,7.02-6.6,11.06-2.92,18.97,1.28,2.75,3.16,4.46,4.47,6.74.93,1.62,2.03,3.85,2.58,5.9l-1.97,1.55c-6.58,4.89-13.68,9.77-20.94,14.69-4.19-2.84-8.33-5.67-12.34-8.49,0-.05-.01-.09-.02-.14-.26-2.38.2-5.52.76-7.73.65-2.55,1.99-4.7,2.48-7.71,1.39-8.61-5.06-10.99-7.96-17.46-.83-1.86-1.35-4.91-2.23-6.76-.79-1.66-2.67-4.42-4.97-2.87-2.85,1.92,1.47,9.31,2.07,11.73.15.59.57,1.7-.42,1.41-.28-.09-1.74-2.96-2.8-6.28-.67-2.08-1.35-4.72-.77-6.51.67-2.09,3.66-11.76,3.91-12.57.55-1.85.04-4-1.35-4.44-1.46-.47-2.07,1.24-2.07,1.24,0,0-1.53,3.64-3.36,8.2-2.11,5.3-4.83,13.2-4.98,15.73-.16,2.74,3.04,9.33,5.38,13.21.83,1.42,3.48,6.62,3.35,11.42l-.1-.07C12.28,56.18-.55,42.39.02,27.92,1,3.08,24.75-5.83,41.85,3.79c5.01,2.81,9.57,7.33,13.55,12.52-7.48,9.77-9.86,18.23-9.86,22.81,0,6.66,3.63,12.22,9.87,12.22s9.87-5.53,9.87-12.22c0-4.57-2.38-13.03-9.87-22.81,3.98-5.19,8.55-9.71,13.55-12.52,17.1-9.62,40.85-.71,41.83,24.13.48,11.99-8.26,23.52-21.33,34.91Z"/>
      <g>
        <path d="M136.51,47.43c0,4.43,2.72,7.44,7.53,7.44s7.55-3.01,7.55-7.44v-20.48h5.78v20.99c0,7.08-5.1,11.98-13.33,11.98s-13.33-4.9-13.33-11.98v-20.99h5.8v20.48Z"/>
        <path d="M163.1,35.56h5.37v4.09h.11c1.28-2.83,3.82-4.54,7.49-4.54,5.26,0,8.25,3.37,8.25,8.88v15.4h-5.6v-14.27c0-3.37-1.57-5.26-4.76-5.26s-5.26,2.32-5.26,5.73v13.8h-5.6v-23.83Z"/>
        <path d="M188.4,52.58c0-4.23,3.26-6.76,9.06-7.12l6.29-.36v-1.71c0-2.5-1.69-3.93-4.45-3.93s-4.34,1.28-4.7,3.26h-5.19c.25-4.45,4.04-7.64,10.11-7.64s9.75,3.12,9.75,7.91v16.41h-5.39v-3.8h-.11c-1.37,2.58-4.36,4.18-7.42,4.18-4.61,0-7.96-2.9-7.96-7.19ZM203.76,50.55v-1.82l-5.51.34c-2.7.18-4.25,1.39-4.25,3.28s1.62,3.19,4.05,3.19c3.17,0,5.71-2.11,5.71-4.99Z"/>
        <path d="M238.92,59.93c-9.46,0-15.35-6.43-15.35-16.88s5.87-16.63,15.24-16.63c7.37,0,12.95,4.36,14,10.86h-5.89c-1.1-3.73-4.11-5.93-8.09-5.93-5.84,0-9.33,4.34-9.33,11.64s3.64,12.02,9.49,12.02c4.9,0,8.29-3.1,8.38-7.64l.02-.54h-7.82v-4.43h13.49v3.46c0,8.79-5.26,14.07-14.14,14.07Z"/>
        <path d="M256.79,47.47c0-7.69,4.58-12.41,11.53-12.41s11.53,4.7,11.53,12.41-4.54,12.38-11.53,12.38-11.53-4.65-11.53-12.38ZM274.16,47.47c0-5.06-2.29-7.96-5.84-7.96s-5.84,2.9-5.84,7.96,2.29,7.96,5.84,7.96,5.84-2.88,5.84-7.96Z"/>
        <path d="M291.15,29.99v5.57h4.5v4.32h-4.5v12.38c0,1.96.9,2.85,2.88,2.85.52,0,1.24-.04,1.6-.11v4.27c-.61.13-1.71.22-2.9.22-5.15,0-7.17-1.82-7.17-6.45v-13.17h-3.42v-4.32h3.42v-5.57h5.6Z"/>
        <path d="M298.74,52.58c0-4.23,3.26-6.76,9.06-7.12l6.29-.36v-1.71c0-2.5-1.69-3.93-4.45-3.93s-4.34,1.28-4.7,3.26h-5.19c.25-4.45,4.04-7.64,10.11-7.64s9.75,3.12,9.75,7.91v16.41h-5.39v-3.8h-.11c-1.37,2.58-4.36,4.18-7.42,4.18-4.61,0-7.96-2.9-7.96-7.19ZM314.09,50.55v-1.82l-5.51.34c-2.7.18-4.25,1.39-4.25,3.28s1.62,3.19,4.05,3.19c3.17,0,5.71-2.11,5.71-4.99Z"/>
        <path d="M333.46,47.45c0-7.53,3.89-12.29,9.89-12.29,3.42,0,6.11,1.78,7.37,4.41h.13v-12.61h5.6v32.43h-5.48v-4.07h-.09c-1.3,2.67-4.05,4.45-7.53,4.45-6,0-9.89-4.74-9.89-12.32ZM339.19,47.47c0,4.74,2.22,7.71,5.84,7.71s5.84-2.99,5.84-7.71-2.32-7.71-5.84-7.71-5.84,2.99-5.84,7.71Z"/>
        <path d="M382.72,52.26c-.72,4.5-4.9,7.6-10.54,7.6-7.15,0-11.46-4.7-11.46-12.29s4.36-12.5,11.24-12.5,10.99,4.7,10.99,11.93v1.82h-16.65v.34c0,3.82,2.34,6.38,6,6.38,2.61,0,4.58-1.3,5.19-3.28h5.24ZM366.34,45.14h11.13c-.11-3.37-2.27-5.73-5.48-5.73s-5.42,2.41-5.64,5.73Z"/>
        <path d="M401.73,50.26c.36,2.99,3.35,4.94,7.3,4.94s6.63-1.93,6.63-4.63c0-2.34-1.66-3.69-5.75-4.65l-4.2-.99c-5.98-1.37-8.81-4.25-8.81-8.88,0-5.75,5.01-9.64,12.07-9.64s11.87,3.87,12,9.58h-5.53c-.27-3.03-2.81-4.86-6.52-4.86s-6.14,1.8-6.14,4.5c0,2.16,1.64,3.42,5.62,4.36l3.73.85c6.59,1.51,9.37,4.23,9.37,9.06,0,6.16-4.95,10.02-12.79,10.02s-12.36-3.69-12.61-9.66h5.62Z"/>
        <path d="M424.92,52.58c0-4.23,3.26-6.76,9.06-7.12l6.29-.36v-1.71c0-2.5-1.69-3.93-4.45-3.93s-4.34,1.28-4.7,3.26h-5.19c.25-4.45,4.04-7.64,10.11-7.64s9.75,3.12,9.75,7.91v16.41h-5.39v-3.8h-.11c-1.37,2.58-4.36,4.18-7.42,4.18-4.61,0-7.96-2.9-7.96-7.19ZM440.27,50.55v-1.82l-5.51.34c-2.7.18-4.25,1.39-4.25,3.28s1.62,3.19,4.05,3.19c3.17,0,5.71-2.11,5.71-4.99Z"/>
        <path d="M451.01,26.95h5.6v32.43h-5.6V26.95Z"/>
        <path d="M483.06,59.39h-5.39v-4.14h-.11c-1.26,2.9-3.66,4.56-7.28,4.56-5.17,0-8.45-3.35-8.45-8.86v-15.4h5.6v14.27c0,3.42,1.66,5.26,4.81,5.26s5.24-2.29,5.24-5.75v-13.78h5.6v23.83Z"/>
        <path d="M487.19,47.45c0-7.53,3.89-12.29,9.89-12.29,3.42,0,6.11,1.78,7.37,4.41h.13v-12.61h5.6v32.43h-5.48v-4.07h-.09c-1.3,2.67-4.05,4.45-7.53,4.45-6,0-9.89-4.74-9.89-12.32ZM492.92,47.47c0,4.74,2.22,7.71,5.84,7.71s5.84-2.99,5.84-7.71-2.32-7.71-5.84-7.71-5.84,2.99-5.84,7.71Z"/>
      </g>
    </g>
  </g>
</svg>