<?xml version="1.0" encoding="UTF-8"?>
<svg id="b" data-name="Capa 2" xmlns="http://www.w3.org/2000/svg" viewBox="0 0 275.81 87.99">
  <defs>
    <style>
      .d {
        fill: #fff;
      }
    </style>
  </defs>
  <g id="c" data-name="Capa 1">
    <g>
      <path class="d" d="M89.46,62.83c-.24-.46-.46-.94-.67-1.47-1.87-4.7-.61-11.05-.17-12.75,1.2-4.38,2.48-11.58,1.59-14.17-.82-2.39-5.59-9.26-9.06-13.78-2.99-3.9-5.38-6.84-5.38-6.84,0,0-1.16-1.67-2.4-.78-1,.71-1.14,3.02-.09,4.65.46.71,5.96,9.21,7.17,11.04,1.04,1.57,1.1,4.29,1.02,6.48-.13,3.48-.68,6.6-1,6.8-.86.56-.77-.63-.79-1.25-.07-2.49,2.08-10.77-1.19-11.85-2.64-.87-3.7,2.31-4.01,4.11-.35,2.02-.01,5.11-.31,7.12-1.04,7.02-6.6,11.06-2.92,18.97,1.28,2.75,3.16,4.46,4.47,6.74.93,1.62,2.03,3.85,2.58,5.9l-1.97,1.55c-6.58,4.89-13.68,9.77-20.94,14.69-4.19-2.84-8.33-5.67-12.34-8.49,0-.05-.01-.09-.02-.14-.26-2.38.2-5.52.76-7.73.65-2.55,1.99-4.7,2.48-7.71,1.39-8.61-5.06-10.99-7.96-17.46-.83-1.86-1.35-4.91-2.23-6.76-.79-1.66-2.67-4.42-4.97-2.87-2.85,1.92,1.47,9.31,2.07,11.73.15.59.57,1.7-.42,1.41-.28-.09-1.74-2.96-2.8-6.28-.67-2.08-1.35-4.72-.77-6.51.67-2.09,3.66-11.76,3.91-12.57.55-1.85.04-4-1.35-4.44-1.46-.47-2.07,1.24-2.07,1.24,0,0-1.53,3.64-3.36,8.2-2.11,5.3-4.83,13.2-4.98,15.73-.16,2.74,3.04,9.33,5.38,13.21.83,1.42,3.48,6.62,3.35,11.42l-.1-.07C12.28,56.18-.55,42.39.02,27.92,1,3.08,24.75-5.83,41.85,3.79c5.01,2.81,9.57,7.33,13.55,12.52-7.48,9.77-9.86,18.23-9.86,22.81,0,6.66,3.63,12.22,9.87,12.22s9.87-5.53,9.87-12.22c0-4.57-2.38-13.03-9.87-22.81,3.98-5.19,8.55-9.71,13.55-12.52,17.1-9.62,40.85-.71,41.83,24.13.48,11.99-8.26,23.52-21.33,34.91Z"/>
      <g>
        <path class="d" d="M151.43,15.62h-4.32v15.4c0,1.76-.47,3.11-1.42,4.07-.95.96-2.3,1.44-4.05,1.44s-3.07-.47-4.02-1.42c-.95-.95-1.42-2.31-1.42-4.09v-15.4h-4.32v15.67c0,1.91.4,3.58,1.2,5,.8,1.42,1.93,2.51,3.39,3.28,1.46.77,3.19,1.15,5.17,1.15s3.74-.39,5.2-1.17c1.46-.78,2.59-1.87,3.39-3.28.8-1.41,1.2-3.07,1.2-4.98v-15.67Z"/>
        <path class="d" d="M165.62,23.12c-1.13,0-2.17.24-3.12.71s-1.69,1.13-2.21,1.96l-.34-2.16h-3.82v16.68h4.12v-8.98c0-1.35.36-2.43,1.08-3.24s1.72-1.21,3.01-1.21c1.08,0,1.94.34,2.57,1.03.63.69.95,1.73.95,3.12v9.29h4.12v-10.27c0-2.14-.53-3.83-1.6-5.07s-2.65-1.86-4.75-1.86Z"/>
        <path class="d" d="M184.48,39.93c1.02-.54,1.72-1.24,2.08-2.09l.3,2.46h3.61v-10.13c0-1.55-.29-2.85-.88-3.9-.58-1.05-1.42-1.83-2.5-2.36-1.08-.53-2.38-.79-3.88-.79s-2.8.25-3.93.74c-1.14.5-2.02,1.19-2.63,2.08s-.93,1.94-.93,3.16h3.51c0-.88.33-1.56.98-2.04.65-.48,1.59-.73,2.8-.73.7,0,1.31.11,1.82.32.52.21.92.55,1.2,1.01.28.46.42,1.08.42,1.84v.37l-5,.41c-1.98.16-3.51.69-4.58,1.6s-1.6,2.13-1.6,3.66.51,2.81,1.54,3.77,2.42,1.44,4.17,1.44c1.31,0,2.47-.27,3.5-.81ZM179.46,35.38c0-.68.27-1.22.81-1.64.54-.42,1.45-.68,2.74-.79l3.48-.27v.88c0,1.28-.38,2.29-1.13,3-.75.72-1.77,1.08-3.06,1.08-.9,0-1.6-.19-2.09-.57-.5-.38-.74-.95-.74-1.69Z"/>
        <path class="d" d="M214.52,30.24h7.46v.1c0,.97-.16,1.85-.49,2.63s-.78,1.46-1.37,2.01c-.58.55-1.3.97-2.14,1.25-.84.28-1.82.42-2.92.42-1.51,0-2.84-.33-4-.98-1.16-.65-2.07-1.62-2.72-2.89-.65-1.27-.98-2.82-.98-4.64s.3-3.36.91-4.68c.61-1.32,1.49-2.35,2.63-3.09,1.15-.74,2.53-1.11,4.15-1.11,1.49,0,2.8.34,3.95,1.03,1.15.69,1.91,1.76,2.3,3.23h4.56c-.22-1.69-.83-3.15-1.81-4.39-.98-1.24-2.23-2.2-3.77-2.89s-3.24-1.03-5.13-1.03c-2.45,0-4.61.55-6.47,1.65-1.86,1.1-3.3,2.62-4.32,4.54-1.02,1.92-1.54,4.14-1.54,6.64s.5,4.76,1.5,6.65c1,1.89,2.39,3.36,4.15,4.41s3.8,1.57,6.1,1.57c1.24,0,2.39-.16,3.44-.49,1.06-.33,1.98-.78,2.75-1.37.54-.41.97-.85,1.31-1.33l.26,2.82h3.65v-13.88h-11.48v3.82Z"/>
        <path class="d" d="M246.87,31.93c0-1.73-.38-3.26-1.15-4.58s-1.82-2.35-3.16-3.09c-1.34-.74-2.88-1.11-4.61-1.11s-3.24.37-4.59,1.11-2.41,1.77-3.17,3.09c-.77,1.32-1.15,2.84-1.15,4.58s.38,3.26,1.15,4.58c.76,1.32,1.82,2.35,3.17,3.09s2.88,1.11,4.59,1.11,3.27-.37,4.61-1.11c1.34-.74,2.39-1.77,3.16-3.09.77-1.32,1.15-2.84,1.15-4.58ZM242.14,34.6c-.41.77-.97,1.36-1.69,1.79s-1.55.64-2.5.64-1.77-.21-2.48-.64c-.71-.43-1.27-1.02-1.69-1.79-.42-.77-.62-1.66-.62-2.67s.21-1.93.62-2.68c.42-.75.98-1.35,1.69-1.77.71-.43,1.54-.64,2.48-.64s1.78.21,2.5.64,1.28,1.02,1.69,1.77c.41.75.61,1.65.61,2.68s-.2,1.9-.61,2.67Z"/>
        <polygon class="d" points="251.53 40.31 255.65 40.31 255.65 27.07 258.86 27.07 258.86 23.62 255.65 23.62 255.65 18.42 251.53 18.42 251.53 23.62 248.32 23.62 248.32 27.07 251.53 27.07 251.53 40.31"/>
        <path class="d" d="M274.93,26.27c-.58-1.05-1.42-1.83-2.5-2.36-1.08-.53-2.38-.79-3.88-.79s-2.8.25-3.93.74c-1.14.5-2.02,1.19-2.63,2.08s-.93,1.94-.93,3.16h3.51c0-.88.33-1.56.98-2.04.65-.48,1.59-.73,2.8-.73.7,0,1.31.11,1.82.32.52.21.92.55,1.2,1.01.28.46.42,1.08.42,1.84v.37l-5,.41c-1.98.16-3.51.69-4.58,1.6s-1.6,2.13-1.6,3.66.51,2.81,1.54,3.77,2.42,1.44,4.17,1.44c1.31,0,2.47-.27,3.5-.81,1.02-.54,1.72-1.24,2.08-2.09l.3,2.46h3.61v-10.13c0-1.55-.29-2.85-.88-3.9ZM271.83,33.55c0,1.28-.38,2.29-1.13,3-.75.72-1.77,1.08-3.06,1.08-.9,0-1.6-.19-2.09-.57-.5-.38-.74-.95-.74-1.69,0-.68.27-1.22.81-1.64.54-.42,1.45-.68,2.74-.79l3.48-.27v.88Z"/>
        <path class="d" d="M143.97,59.87c-.52-.83-1.26-1.48-2.23-1.94-.97-.46-2.04-.69-3.21-.69-1.67,0-3.11.38-4.32,1.15s-2.14,1.82-2.79,3.16c-.64,1.34-.96,2.88-.96,4.61s.32,3.25.96,4.56,1.54,2.33,2.7,3.06c1.16.73,2.55,1.1,4.17,1.1,1.26,0,2.4-.27,3.43-.81,1.02-.54,1.78-1.28,2.28-2.23l.27,2.6h3.78v-25.13h-4.09v10.57ZM143.35,68.66c-.39.78-.94,1.37-1.64,1.79-.7.42-1.53.62-2.5.62s-1.77-.21-2.46-.64c-.7-.43-1.23-1.02-1.6-1.79-.37-.77-.56-1.64-.56-2.63s.19-1.87.56-2.63c.37-.77.91-1.37,1.6-1.81.7-.44,1.52-.66,2.46-.66s1.8.22,2.5.66c.7.44,1.24,1.04,1.64,1.79.39.75.59,1.64.59,2.65s-.2,1.87-.59,2.65Z"/>
        <path class="d" d="M162.66,70.84c-.73.43-1.66.64-2.79.64-1.53,0-2.68-.46-3.46-1.38-.62-.73-.98-1.76-1.11-3.04l12.54-.03v-1.25c0-1.76-.33-3.26-1-4.53-.66-1.26-1.6-2.25-2.82-2.96s-2.67-1.06-4.36-1.06-3.06.38-4.32,1.13c-1.26.75-2.24,1.8-2.94,3.12-.7,1.33-1.05,2.86-1.05,4.59s.36,3.23,1.08,4.54c.72,1.32,1.72,2.35,2.99,3.11,1.27.75,2.73,1.13,4.37,1.13,2.18,0,3.99-.52,5.42-1.55,1.43-1.04,2.32-2.47,2.68-4.29h-3.82c-.23.79-.7,1.4-1.44,1.82ZM157.26,61.22c.66-.41,1.48-.61,2.45-.61,1.24,0,2.22.35,2.96,1.05.73.7,1.1,1.62,1.1,2.77h-8.39c.08-.51.21-.97.38-1.38.34-.81.84-1.42,1.5-1.82Z"/>
        <path class="d" d="M190.67,60.58l-3.88-.88c-1.04-.25-1.8-.62-2.28-1.13-.48-.51-.73-1.2-.73-2.08,0-1.04.4-1.85,1.2-2.45.8-.6,1.86-.89,3.19-.89,1.22,0,2.18.3,2.9.89.72.6,1.1,1.42,1.15,2.48h4.32c-.04-1.49-.41-2.77-1.1-3.85-.69-1.08-1.64-1.91-2.87-2.5-1.23-.58-2.67-.88-4.34-.88s-3.26.31-4.58.93c-1.32.62-2.35,1.48-3.09,2.58s-1.11,2.38-1.11,3.82c0,1.91.54,3.46,1.62,4.64,1.08,1.18,2.67,2,4.76,2.45l3.92.88c1.01.2,1.74.56,2.2,1.06.45.51.68,1.19.68,2.04,0,.99-.42,1.79-1.27,2.38-.84.6-1.99.9-3.43.9s-2.46-.3-3.26-.9c-.8-.6-1.21-1.41-1.23-2.45h-4.32c.04,1.46.43,2.74,1.17,3.82.73,1.08,1.75,1.92,3.06,2.52,1.3.6,2.83.9,4.56.9,1.82,0,3.42-.31,4.78-.93,1.36-.62,2.42-1.5,3.16-2.65s1.11-2.48,1.11-3.99c0-1.85-.52-3.31-1.55-4.41-1.04-1.09-2.61-1.86-4.73-2.31Z"/>
        <path class="d" d="M211.34,58.03c-1.08-.53-2.38-.79-3.88-.79s-2.8.25-3.93.74c-1.14.5-2.02,1.19-2.63,2.08s-.93,1.94-.93,3.16h3.51c0-.88.33-1.56.98-2.04.65-.48,1.59-.73,2.8-.73.7,0,1.31.11,1.82.32.52.21.92.55,1.2,1.01.28.46.42,1.08.42,1.84v.37l-5,.41c-1.98.16-3.51.69-4.58,1.6s-1.6,2.13-1.6,3.66.51,2.81,1.54,3.77,2.42,1.44,4.17,1.44c1.31,0,2.47-.27,3.5-.81,1.02-.54,1.72-1.24,2.08-2.09l.3,2.46h3.61v-10.13c0-1.55-.29-2.85-.88-3.9-.58-1.05-1.42-1.83-2.5-2.36ZM210.73,67.67c0,1.28-.38,2.29-1.13,3-.75.72-1.77,1.08-3.06,1.08-.9,0-1.6-.19-2.09-.57-.5-.38-.74-.95-.74-1.69,0-.68.27-1.22.81-1.64.54-.42,1.45-.68,2.74-.79l3.48-.27v.88Z"/>
        <rect class="d" x="218.84" y="49.3" width="4.09" height="25.13"/>
        <path class="d" d="M238.56,66.48c0,1.58-.32,2.75-.95,3.53s-1.6,1.17-2.9,1.17c-1.15,0-2.03-.35-2.63-1.05-.61-.7-.91-1.83-.91-3.41v-8.98h-4.12v10.43c0,2.03.54,3.65,1.62,4.86s2.58,1.82,4.49,1.82c1.13,0,2.18-.25,3.17-.74.99-.5,1.73-1.14,2.23-1.92l.3,2.23h3.82v-16.68h-4.12v8.75Z"/>
        <path class="d" d="M259.13,59.87c-.52-.83-1.26-1.48-2.23-1.94-.97-.46-2.04-.69-3.21-.69-1.67,0-3.11.38-4.32,1.15s-2.14,1.82-2.79,3.16c-.64,1.34-.96,2.88-.96,4.61s.32,3.25.96,4.56,1.54,2.33,2.7,3.06c1.16.73,2.55,1.1,4.17,1.1,1.26,0,2.4-.27,3.43-.81,1.02-.54,1.78-1.28,2.28-2.23l.27,2.6h3.78v-25.13h-4.09v10.57ZM258.5,68.66c-.39.78-.94,1.37-1.64,1.79-.7.42-1.53.62-2.5.62s-1.77-.21-2.46-.64c-.7-.43-1.23-1.02-1.6-1.79-.37-.77-.56-1.64-.56-2.63s.19-1.87.56-2.63c.37-.77.91-1.37,1.6-1.81.7-.44,1.52-.66,2.46-.66s1.8.22,2.5.66c.7.44,1.24,1.04,1.64,1.79.39.75.59,1.64.59,2.65s-.2,1.87-.59,2.65Z"/>
      </g>
    </g>
  </g>
</svg>