<?xml version="1.0" encoding="UTF-8"?>
<svg id="b" data-name="Capa 2" xmlns="http://www.w3.org/2000/svg" viewBox="0 0 390.06 135.93">
  <defs>
    <style>
      .d {
        fill: #fff;
      }
    </style>
  </defs>
  <g id="c" data-name="Capa 1">
    <g>
      <path class="d" d="M171.15,43.13c-1.52-38.37-38.21-52.13-64.62-37.27-7.73,4.35-14.79,11.33-20.93,19.35,11.56,15.1,14.8,26.14,15.25,33.2.63,9.96-2.5,20.91-15.25,20.92-12.75,0-15.88-10.96-15.25-20.92.44-7.05,3.68-18.09,15.24-33.2-6.14-8.02-13.2-15-20.93-19.35C38.23-9,1.54,4.76.03,43.13c-.88,22.36,18.94,43.66,46.26,64.83.07-1.09-.15-2.18-.73-3.25-.69-1.27-1.22-2.62-1.94-3.86-2.04-3.55-4.21-7.03-6.2-10.62-1.86-3.37-3.49-6.86-4.04-10.73-.47-3.28-.59-6.58-.13-9.88.37-2.65.58-5.34,1.16-7.94,1.47-6.57,3.7-12.91,6.53-19.02.74-1.59,1.73-3.08,2.78-4.49.81-1.09,2.05-1.44,3.41-.98,1.28.43,1.87,1.47,1.87,2.69,0,1.88,0,3.82-.41,5.64-.68,3.05-1.69,6.02-2.53,9.03-.63,2.28-1.32,4.56-1.78,6.88-.48,2.42.3,4.75.98,7.29.13-.45.21-.71.29-.98.43-1.48.84-2.96,1.29-4.43.86-2.83,3.97-2.78,5.5-1.29.64.62,1.21,1.39,1.57,2.2,1.62,3.57,3.14,7.18,4.7,10.78,2.09,4.8,4.05,9.65,6.7,14.19,1.62,2.77,3.15,5.6,4.58,8.47,1.75,3.5,2.17,7.21,1.33,11.06-.63,2.89-1.99,5.45-3.64,7.86-1.1,1.6-2.03,3.28-2.79,5.04,6.74,4.77,13.72,9.54,20.78,14.32,11.2-7.59,22.17-15.13,32.34-22.69-1.29-2.18-2.84-4.17-4.65-5.96-2.08-2.06-3.89-4.31-5.06-7.03-1.55-3.62-1.85-7.34-.79-11.11.86-3.09,1.83-6.16,2.89-9.19,1.74-4.96,2.74-10.1,3.89-15.21.86-3.82,1.67-7.66,2.57-11.47.21-.86.62-1.73,1.13-2.46,1.21-1.75,4.26-2.39,5.64.23.72,1.36,1.41,2.74,2.11,4.1.12.24.25.48.47.9.18-2.62.51-5.06-.42-7.35-.89-2.19-2-4.29-3.05-6.42-1.39-2.8-2.95-5.52-4.19-8.39-.74-1.71-1.11-3.61-1.47-5.46-.23-1.19.15-2.33,1.33-2.99,1.24-.7,2.53-.6,3.53.32,1.3,1.19,2.56,2.46,3.58,3.88,3.94,5.46,7.33,11.26,10.02,17.44,1.06,2.44,1.78,5.04,2.64,7.57,1.07,3.15,1.58,6.41,1.75,9.73.19,3.91-.74,7.64-1.93,11.3-1.27,3.89-2.74,7.73-4.07,11.6-.47,1.36-.74,2.79-1.17,4.16-.6,1.93-.25,3.69.79,5.35.59.94,1.17,1.88,1.76,2.81,21.84-18.44,36.71-37.07,35.94-56.5Z"/>
      <g>
        <path class="d" d="M203.22,52.12v-20.34h5.61v19.99c0,2.31.61,4.08,1.84,5.3s2.97,1.84,5.22,1.84,4.03-.62,5.26-1.86c1.23-1.24,1.84-3,1.84-5.28v-19.99h5.61v20.34c0,2.48-.52,4.64-1.56,6.47-1.04,1.83-2.51,3.24-4.41,4.25-1.9,1.01-4.15,1.51-6.75,1.51s-4.81-.5-6.71-1.49c-1.9-.99-3.37-2.41-4.41-4.25-1.04-1.84-1.56-4-1.56-6.49Z"/>
        <path class="d" d="M240.05,63.82h-5.35v-21.66h4.95l.44,2.81c.67-1.08,1.63-1.93,2.87-2.54,1.24-.61,2.59-.92,4.06-.92,2.72,0,4.77.8,6.16,2.41,1.39,1.61,2.08,3.8,2.08,6.58v13.33h-5.35v-12.06c0-1.81-.41-3.16-1.23-4.05-.82-.89-1.93-1.34-3.33-1.34-1.67,0-2.97.53-3.9,1.58-.94,1.05-1.4,2.46-1.4,4.21v11.66Z"/>
        <path class="d" d="M266.96,64.39c-2.28,0-4.08-.62-5.41-1.86-1.33-1.24-1.99-2.87-1.99-4.89s.69-3.57,2.08-4.76c1.39-1.18,3.37-1.88,5.94-2.08l6.49-.53v-.48c0-.99-.18-1.79-.55-2.39-.37-.6-.88-1.04-1.56-1.32-.67-.28-1.46-.42-2.37-.42-1.58,0-2.79.31-3.64.94-.85.63-1.27,1.51-1.27,2.65h-4.56c0-1.58.4-2.94,1.21-4.1.8-1.15,1.94-2.05,3.42-2.7,1.48-.64,3.18-.96,5.11-.96s3.64.34,5.04,1.03,2.48,1.71,3.24,3.07c.76,1.36,1.14,3.05,1.14,5.06v13.15h-4.69l-.39-3.2c-.47,1.11-1.37,2.02-2.7,2.72-1.33.7-2.84,1.05-4.54,1.05ZM268.67,60.36c1.67,0,2.99-.47,3.97-1.4.98-.93,1.47-2.24,1.47-3.9v-1.14l-4.52.35c-1.67.15-2.85.49-3.55,1.03-.7.54-1.05,1.25-1.05,2.13,0,.96.32,1.7.96,2.19.64.5,1.55.75,2.72.75Z"/>
        <path class="d" d="M311.2,36.51c-2.1,0-3.9.48-5.39,1.45-1.49.96-2.63,2.3-3.42,4.01s-1.18,3.73-1.18,6.07.42,4.38,1.27,6.03c.85,1.65,2.02,2.9,3.53,3.75,1.5.85,3.24,1.27,5.19,1.27,1.43,0,2.7-.18,3.79-.55,1.1-.37,2.02-.91,2.78-1.62.76-.72,1.35-1.58,1.78-2.61.42-1.02.64-2.16.64-3.42v-2.81l2.63,2.67h-12.32v-4.95h14.9v18.02h-4.73l-.48-5.17.66.66c-.47.96-1.21,1.83-2.21,2.59s-2.2,1.35-3.57,1.78c-1.37.42-2.86.64-4.47.64-2.98,0-5.62-.68-7.91-2.04-2.29-1.36-4.09-3.27-5.39-5.72-1.3-2.46-1.95-5.33-1.95-8.64s.66-6.12,1.99-8.61c1.33-2.5,3.2-4.46,5.61-5.9,2.41-1.43,5.21-2.15,8.4-2.15,2.45,0,4.68.45,6.66,1.34,1.99.89,3.62,2.14,4.89,3.75,1.27,1.61,2.05,3.51,2.35,5.7h-5.92c-.5-1.9-1.49-3.29-2.98-4.19-1.49-.89-3.2-1.34-5.13-1.34Z"/>
        <path class="d" d="M329.34,52.95c0-2.25.5-4.23,1.49-5.94.99-1.71,2.37-3.05,4.12-4.01,1.75-.96,3.74-1.45,5.96-1.45s4.24.48,5.98,1.45c1.74.96,3.1,2.3,4.1,4.01.99,1.71,1.49,3.69,1.49,5.94s-.5,4.23-1.49,5.94c-.99,1.71-2.36,3.05-4.1,4.01-1.74.96-3.73,1.45-5.98,1.45s-4.21-.48-5.96-1.45c-1.75-.96-3.13-2.3-4.12-4.01-.99-1.71-1.49-3.69-1.49-5.94ZM334.69,52.95c0,1.32.27,2.47.81,3.46.54.99,1.27,1.77,2.19,2.32.92.56,1.99.83,3.22.83s2.31-.28,3.24-.83c.93-.55,1.67-1.33,2.19-2.32.53-.99.79-2.15.79-3.46s-.26-2.51-.79-3.49c-.53-.98-1.26-1.75-2.19-2.3-.94-.56-2.02-.83-3.24-.83s-2.3.28-3.22.83c-.92.55-1.65,1.32-2.19,2.3-.54.98-.81,2.14-.81,3.49Z"/>
        <path class="d" d="M354.38,42.16h13.68v4.47h-13.68v-4.47ZM363.89,63.82h-5.35v-28.41h5.35v28.41Z"/>
        <path class="d" d="M377.74,64.39c-2.28,0-4.08-.62-5.41-1.86-1.33-1.24-1.99-2.87-1.99-4.89s.69-3.57,2.08-4.76c1.39-1.18,3.37-1.88,5.94-2.08l6.49-.53v-.48c0-.99-.18-1.79-.55-2.39-.37-.6-.88-1.04-1.56-1.32-.67-.28-1.46-.42-2.37-.42-1.58,0-2.79.31-3.64.94-.85.63-1.27,1.51-1.27,2.65h-4.56c0-1.58.4-2.94,1.21-4.1.8-1.15,1.94-2.05,3.42-2.7,1.48-.64,3.18-.96,5.11-.96s3.64.34,5.04,1.03,2.48,1.71,3.24,3.07c.76,1.36,1.14,3.05,1.14,5.06v13.15h-4.69l-.39-3.2c-.47,1.11-1.37,2.02-2.7,2.72-1.33.7-2.84,1.05-4.54,1.05ZM379.45,60.36c1.67,0,2.99-.47,3.97-1.4.98-.93,1.47-2.24,1.47-3.9v-1.14l-4.52.35c-1.67.15-2.85.49-3.55,1.03-.7.54-1.05,1.25-1.05,2.13,0,.96.32,1.7.96,2.19.64.5,1.55.75,2.72.75Z"/>
        <path class="d" d="M211.55,108.68c-2.1,0-3.91-.48-5.41-1.42-1.51-.95-2.67-2.27-3.51-3.97-.83-1.69-1.25-3.67-1.25-5.92s.42-4.25,1.25-5.98c.83-1.74,2.04-3.1,3.62-4.1,1.58-.99,3.45-1.49,5.61-1.49,1.52,0,2.91.3,4.16.9,1.26.6,2.22,1.44,2.89,2.52v-13.72h5.3v32.62h-4.91l-.35-3.38c-.64,1.23-1.63,2.19-2.96,2.89-1.33.7-2.81,1.05-4.45,1.05ZM212.74,103.77c1.26,0,2.34-.27,3.24-.81.91-.54,1.61-1.31,2.13-2.32.51-1.01.77-2.15.77-3.44s-.26-2.46-.77-3.44c-.51-.98-1.22-1.75-2.13-2.32-.91-.57-1.99-.85-3.24-.85s-2.29.29-3.2.85c-.91.57-1.6,1.35-2.08,2.35-.48.99-.72,2.13-.72,3.42s.24,2.43.72,3.42c.48.99,1.18,1.77,2.08,2.32.91.56,1.97.83,3.2.83Z"/>
        <path class="d" d="M239.48,108.68c-2.13,0-4.03-.49-5.68-1.47-1.65-.98-2.94-2.32-3.88-4.03-.94-1.71-1.4-3.67-1.4-5.9s.45-4.24,1.36-5.96c.91-1.72,2.18-3.08,3.81-4.05,1.64-.98,3.51-1.47,5.61-1.47s4.08.46,5.65,1.38c1.58.92,2.8,2.2,3.66,3.84.86,1.64,1.29,3.59,1.29,5.87v1.62l-18.59.04.09-3.42h13.2c0-1.49-.48-2.69-1.42-3.59-.95-.91-2.23-1.36-3.84-1.36-1.26,0-2.32.26-3.18.79-.86.53-1.51,1.32-1.95,2.37s-.66,2.34-.66,3.86c0,2.34.5,4.11,1.51,5.3s2.51,1.8,4.49,1.8c1.46,0,2.67-.28,3.62-.83.95-.56,1.57-1.34,1.86-2.37h4.95c-.47,2.37-1.63,4.22-3.48,5.57-1.86,1.34-4.2,2.02-7.04,2.02Z"/>
        <path class="d" d="M264.99,85c0-1.87.48-3.52,1.45-4.95.96-1.43,2.3-2.55,4.01-3.35,1.71-.8,3.69-1.21,5.94-1.21s4.04.38,5.63,1.14c1.59.76,2.83,1.84,3.73,3.24.89,1.4,1.37,3.07,1.42,5h-5.61c-.06-1.37-.56-2.45-1.49-3.22-.94-.77-2.19-1.16-3.77-1.16-1.72,0-3.11.39-4.14,1.16-1.04.77-1.56,1.83-1.56,3.18,0,1.14.31,2.04.94,2.7.63.66,1.61,1.15,2.96,1.47l5.04,1.14c2.75.58,4.79,1.59,6.14,3,1.34,1.42,2.02,3.33,2.02,5.72,0,1.96-.48,3.68-1.45,5.17s-2.33,2.64-4.1,3.44c-1.77.8-3.84,1.21-6.2,1.21s-4.22-.39-5.92-1.16c-1.7-.77-3.02-1.86-3.97-3.27-.95-1.4-1.45-3.05-1.51-4.95h5.61c.03,1.34.56,2.4,1.6,3.18,1.04.77,2.45,1.16,4.23,1.16,1.87,0,3.35-.39,4.45-1.16,1.1-.77,1.64-1.8,1.64-3.09,0-1.11-.29-2-.88-2.65-.58-.66-1.53-1.12-2.85-1.38l-5.09-1.14c-2.72-.58-4.78-1.64-6.18-3.18s-2.1-3.54-2.1-6.03Z"/>
        <path class="d" d="M298.44,108.68c-2.28,0-4.08-.62-5.41-1.86-1.33-1.24-1.99-2.87-1.99-4.89s.69-3.57,2.08-4.76c1.39-1.18,3.37-1.88,5.94-2.08l6.49-.53v-.48c0-.99-.18-1.79-.55-2.39-.37-.6-.88-1.04-1.56-1.32-.67-.28-1.46-.42-2.37-.42-1.58,0-2.79.31-3.64.94-.85.63-1.27,1.51-1.27,2.65h-4.56c0-1.58.4-2.94,1.21-4.1.8-1.15,1.94-2.05,3.42-2.7,1.48-.64,3.18-.96,5.11-.96s3.64.34,5.04,1.03,2.48,1.71,3.24,3.07c.76,1.36,1.14,3.05,1.14,5.06v13.15h-4.69l-.39-3.2c-.47,1.11-1.37,2.02-2.7,2.72-1.33.7-2.84,1.05-4.54,1.05ZM300.15,104.64c1.67,0,2.99-.47,3.97-1.4.98-.93,1.47-2.24,1.47-3.9v-1.14l-4.52.35c-1.67.15-2.85.49-3.55,1.03-.7.54-1.05,1.25-1.05,2.13,0,.96.32,1.7.96,2.19.64.5,1.55.75,2.72.75Z"/>
        <path class="d" d="M321.41,108.11h-5.3v-32.62h5.3v32.62Z"/>
        <path class="d" d="M341.71,86.45h5.35v21.66h-4.95l-.39-2.89c-.64,1.02-1.61,1.86-2.89,2.5-1.29.64-2.66.96-4.12.96-2.48,0-4.43-.79-5.83-2.37-1.4-1.58-2.1-3.68-2.1-6.31v-13.55h5.35v11.66c0,2.05.39,3.52,1.18,4.43.79.91,1.93,1.36,3.42,1.36,1.69,0,2.95-.5,3.77-1.51.82-1.01,1.23-2.54,1.23-4.58v-11.35Z"/>
        <path class="d" d="M361.04,108.68c-2.1,0-3.91-.48-5.41-1.42-1.51-.95-2.67-2.27-3.51-3.97-.83-1.69-1.25-3.67-1.25-5.92s.42-4.25,1.25-5.98c.83-1.74,2.04-3.1,3.62-4.1,1.58-.99,3.45-1.49,5.61-1.49,1.52,0,2.91.3,4.16.9,1.26.6,2.22,1.44,2.89,2.52v-13.72h5.3v32.62h-4.91l-.35-3.38c-.64,1.23-1.63,2.19-2.96,2.89-1.33.7-2.81,1.05-4.45,1.05ZM362.22,103.77c1.26,0,2.34-.27,3.24-.81.91-.54,1.61-1.31,2.13-2.32.51-1.01.77-2.15.77-3.44s-.26-2.46-.77-3.44c-.51-.98-1.22-1.75-2.13-2.32-.91-.57-1.99-.85-3.24-.85s-2.29.29-3.2.85c-.91.57-1.6,1.35-2.08,2.35-.48.99-.72,2.13-.72,3.42s.24,2.43.72,3.42c.48.99,1.18,1.77,2.08,2.32.91.56,1.97.83,3.2.83Z"/>
      </g>
    </g>
  </g>
</svg>