<?xml version="1.0" encoding="UTF-8"?>
<svg id="b" data-name="Capa 2" xmlns="http://www.w3.org/2000/svg" viewBox="0 0 32.31 32.34">
  <defs>
    <style>
      .d {
        fill: #00a3ff;
      }
    </style>
  </defs>
  <g id="c" data-name="Capa 1">
    <g>
      <path class="d" d="M32.31,9.58v12.97l-.13,1.54c-.86,6.18-4.98,8.09-10.74,8.16-.11,0-.28-.04-.35.06-3.23-.07-6.48.09-9.71,0-3.61-.1-7.13-.51-9.42-3.66-1.61-2.22-1.7-4.44-1.8-7.08-.14-4-.3-8.82.06-12.78C.74,3.1,4.27.45,9.77.13c3.68-.22,7.78-.12,11.47,0,.77.03,1.56,0,2.33.06,5.53.49,8.45,3.96,8.73,9.38ZM10.55,3.05c-5.26.2-7.28,1.97-7.49,7.32-.15,3.93-.14,8.11.06,12.03.24,4.76,2.01,6.66,6.84,6.96,3.59.22,7.62.12,11.22,0,2.54-.08,4.91,0,6.72-2.11,1.57-1.83,1.44-4.11,1.51-6.37.11-3.51.2-7.33,0-10.83-.3-5.31-2.51-6.85-7.66-7.03-3.58-.12-7.63-.12-11.21.02Z"/>
      <path class="d" d="M15.28,7.96c8.28-.73,12.52,9.27,6.28,14.59-5.01,4.27-12.88,1.05-13.58-5.45-.48-4.4,2.81-8.75,7.3-9.14ZM15.59,10.85c-3.73.36-5.84,4.56-4.12,7.86s6.43,3.85,8.86.97c3.16-3.75.16-9.3-4.74-8.83Z"/>
      <path class="d" d="M24.41,5.69c2.77-.47,3.19,3.48.73,3.81-2.59.35-2.96-3.43-.73-3.81Z"/>
    </g>
  </g>
</svg>