<?xml version="1.0" encoding="UTF-8"?>
<svg id="b" data-name="Capa 2" xmlns="http://www.w3.org/2000/svg" viewBox="0 0 39 30.59">
  <defs>
    <style>
      .d {
        fill: #00a0e9;
      }
    </style>
  </defs>
  <g id="c" data-name="Capa 1">
    <path class="d" d="M1.86.02l34.99-.02c.95.09,1.73.83,2.02,1.71.26,8.81.04,17.68.12,26.51-.05,1.16-.94,2.26-2.13,2.37H2.15c-.95-.09-1.73-.83-2.02-1.71C-.13,20.07.1,11.2.02,2.37.07,1.29.82.3,1.86.02ZM34.95,2.49H4.06l15.47,17.23L34.95,2.49ZM2.5,26.08l9.7-10.82L2.5,4.51v21.58ZM36.5,26.08V4.51l-9.7,10.76,9.7,10.82ZM34.87,28.1l-9.74-10.87-4.42,4.89c-.79.71-1.62.71-2.41,0l-4.42-4.89-9.74,10.87h30.74Z"/>
  </g>
</svg>