<?xml version="1.0" encoding="UTF-8"?>
<svg id="b" data-name="Capa 2" xmlns="http://www.w3.org/2000/svg" viewBox="0 0 32.48 32.34">
  <defs>
    <style>
      .d {
        fill: #00a3ff;
      }
    </style>
  </defs>
  <g id="c" data-name="Capa 1">
    <path class="d" d="M32.45,15.1c.05.66.05,1.68,0,2.34-.04.51-.17,1.2-.26,1.71-1.23,6.91-7,12.44-13.99,13.19v-11.1h4.38l.92-5.02h-5.3c.06-1.33-.22-3.02.56-4.18,1-1.49,3.44-1.16,4.98-1.12v-4.53c-3.84-.73-8.97-.77-10.72,3.46-.85,2.05-.71,4.2-.71,6.38h-3.36v5.02h3.36v10.76C5.97,30.48,1.04,25,.15,18.53-1.31,7.79,7.78-1.32,18.5.16c7.49,1.03,13.41,7.39,13.94,14.94Z"/>
  </g>
</svg>